<svg data-v-423bf9ae="" xmlns="http://www.w3.org/2000/svg" viewBox="0 0 56.090725038063674 60" className="font"><!----><!----><defs data-v-423bf9ae=""><linearGradient data-v-423bf9ae="" gradientTransform="rotate(25)" id="948ddfbd-4574-4fc2-bfe2-b38f3caef6b3" x1="0%" y1="0%" x2="100%" y2="0%"><stop data-v-423bf9ae="" offset="0%" style="stop-color: rgb(235, 76, 0); stop-opacity: 1;"></stop><stop data-v-423bf9ae="" offset="100%" style="stop-color: rgb(242, 169, 0); stop-opacity: 1;"></stop></linearGradient></defs><g data-v-423bf9ae="" id="7a647eb8-229f-4989-ac16-2fa25dd224e0" fill="url(#948ddfbd-4574-4fc2-bfe2-b38f3caef6b3)" transform="matrix(5.071493933994587,0,0,5.071493933994587,4.260054669709298,-15.26519693137675)"><path d="M10.22 4.87L10.22 4.87L10.22 4.87Q10.22 5.20 9.96 5.60L9.96 5.60L9.96 5.60Q9.70 6.00 9.29 6.41L9.29 6.41L9.29 6.41Q8.89 6.82 8.39 7.20L8.39 7.20L8.39 7.20Q7.89 7.59 7.40 7.90L7.40 7.90L7.40 7.90Q7 8.15 6.63 8.36L6.63 8.36L6.63 8.36Q6.25 8.57 5.93 8.75L5.93 8.75L5.93 8.75Q5.61 8.93 5.34 9.10L5.34 9.10L5.34 9.10Q5.07 9.27 4.87 9.44L4.87 9.44L4.87 9.44Q5.37 9.53 5.75 9.61L5.75 9.61L5.75 9.61Q6.13 9.70 6.36 9.82L6.36 9.82L6.36 9.82Q6.52 9.93 6.69 10.16L6.69 10.16L6.69 10.16Q6.86 10.39 7 10.63L7 10.63L7 10.63Q7.14 10.87 7.22 11.06L7.22 11.06L7.22 11.06Q7.31 11.26 7.31 11.30L7.31 11.30L7.31 11.30Q7.31 11.60 7.15 11.94L7.15 11.94L7.15 11.94Q7 12.27 6.73 12.60L6.73 12.60L6.73 12.60Q6.46 12.93 6.09 13.24L6.09 13.24L6.09 13.24Q5.71 13.55 5.27 13.80L5.27 13.80L5.27 13.80Q4.83 14.05 4.34 14.22L4.34 14.22L4.34 14.22Q3.85 14.40 3.34 14.45L3.34 14.45L3.34 14.45Q3.12 14.27 2.91 14.06L2.91 14.06L2.91 14.06Q2.69 13.85 2.52 13.67L2.52 13.67L2.52 13.67Q2.35 13.49 2.24 13.35L2.24 13.35L2.24 13.35Q2.12 13.22 2.09 13.19L2.09 13.19L2.09 13.19Q1.85 13.57 1.59 13.88L1.59 13.88L1.59 13.88Q1.34 14.20 1.09 14.41L1.09 14.41L1.09 14.41Q0.84 14.63 0.59 14.74L0.59 14.74L0.59 14.74Q0.34 14.85 0.10 14.84L0.10 14.84L0.10 14.84Q-0.01 14.83-0.12 14.76L-0.12 14.76L-0.12 14.76Q-0.23 14.69-0.33 14.58L-0.33 14.58L-0.33 14.58Q-0.43 14.47-0.52 14.34L-0.52 14.34L-0.52 14.34Q-0.62 14.21-0.69 14.09L-0.69 14.09L-0.69 14.09Q-0.76 13.97-0.80 13.87L-0.80 13.87L-0.80 13.87Q-0.84 13.77-0.84 13.73L-0.84 13.73L-0.84 13.73Q-0.84 13.02-0.54 12.13L-0.54 12.13L-0.54 12.13Q-0.23 11.25 0.29 10.31L0.29 10.31L0.29 10.31Q0.82 9.37 1.54 8.42L1.54 8.42L1.54 8.42Q2.26 7.47 3.08 6.62L3.08 6.62L3.08 6.62Q3.36 5.64 3.53 4.71L3.53 4.71L3.53 4.71Q3.70 3.78 3.71 3.01L3.71 3.01L3.71 3.01Q4.16 3.25 4.44 3.48L4.44 3.48L4.44 3.48Q4.71 3.71 4.87 3.88L4.87 3.88L4.87 3.88Q5.04 4.09 5.13 4.29L5.13 4.29L5.13 4.29Q5.17 4.41 5.17 4.63L5.17 4.63L5.17 4.63Q5.17 4.68 5.16 4.72L5.16 4.72L5.16 4.72Q5.16 4.76 5.15 4.81L5.15 4.81L5.15 4.81Q6.11 4.13 7.06 3.72L7.06 3.72L7.06 3.72Q8.00 3.32 8.87 3.32L8.87 3.32L8.87 3.32Q8.98 3.32 9.13 3.40L9.13 3.40L9.13 3.40Q9.27 3.48 9.42 3.62L9.42 3.62L9.42 3.62Q9.56 3.75 9.71 3.92L9.71 3.92L9.71 3.92Q9.86 4.09 9.97 4.26L9.97 4.26L9.97 4.26Q10.08 4.44 10.15 4.60L10.15 4.60L10.15 4.60Q10.22 4.76 10.22 4.87ZM3.75 9.80L3.75 9.80L3.75 9.80Q3.38 10.73 2.97 11.60L2.97 11.60L2.97 11.60Q2.56 12.47 2.11 13.17L2.11 13.17L2.11 13.17Q2.88 13.10 3.55 12.94L3.55 12.94L3.55 12.94Q4.22 12.78 4.76 12.52L4.76 12.52L4.76 12.52Q5.30 12.25 5.71 11.86L5.71 11.86L5.71 11.86Q6.12 11.47 6.38 10.94L6.38 10.94L6.38 10.94Q6.24 10.87 6.08 10.81L6.08 10.81L6.08 10.81Q5.92 10.75 5.74 10.70L5.74 10.70L5.74 10.70Q5.56 10.65 5.38 10.61L5.38 10.61L5.38 10.61Q5.20 10.58 5.03 10.54L5.03 10.54L5.03 10.54Q4.63 10.47 4.21 10.43L4.21 10.43L4.21 10.43Q4.12 10.42 3.99 10.23L3.99 10.23L3.99 10.23Q3.86 10.04 3.75 9.80ZM4.81 6.55L4.81 6.55L4.81 6.55Q4.70 6.97 4.56 7.43L4.56 7.43L4.56 7.43Q4.42 7.90 4.25 8.39L4.25 8.39L4.25 8.39Q4.87 7.89 5.57 7.44L5.57 7.44L5.57 7.44Q6.28 7 6.98 6.54L6.98 6.54L6.98 6.54Q7.68 6.08 8.30 5.55L8.30 5.55L8.30 5.55Q8.92 5.03 9.37 4.37L9.37 4.37L9.37 4.37Q9.39 4.33 9.39 4.29L9.39 4.29L9.39 4.29Q9.39 4.24 9.36 4.19L9.36 4.19L9.36 4.19Q9.33 4.15 9.29 4.12L9.29 4.12L9.29 4.12Q9.24 4.09 9.18 4.09L9.18 4.09L9.18 4.09Q8.80 4.09 8.30 4.27L8.30 4.27L8.30 4.27Q7.81 4.45 7.24 4.77L7.24 4.77L7.24 4.77Q6.67 5.10 6.05 5.55L6.05 5.55L6.05 5.55Q5.43 6.01 4.81 6.55ZM0.12 13.54L0.12 13.54L0.12 13.54Q0.18 13.54 0.30 13.39L0.30 13.39L0.30 13.39Q0.42 13.23 0.58 12.96L0.58 12.96L0.58 12.96Q0.75 12.68 0.94 12.29L0.94 12.29L0.94 12.29Q1.13 11.89 1.35 11.42L1.35 11.42L1.35 11.42Q1.56 10.94 1.78 10.40L1.78 10.40L1.78 10.40Q2.00 9.85 2.22 9.26L2.22 9.26L2.22 9.26Q1.82 9.78 1.46 10.30L1.46 10.30L1.46 10.30Q1.11 10.82 0.82 11.34L0.82 11.34L0.82 11.34Q0.54 11.86 0.34 12.37L0.34 12.37L0.34 12.37Q0.14 12.88 0.04 13.36L0.04 13.36L0.04 13.36Q0.02 13.45 0.05 13.50L0.05 13.50L0.05 13.50Q0.08 13.54 0.12 13.54Z"></path></g><!----><!----></svg>